# xmcd CD database file generated by Grip 2.95
# 
# Track frame offsets:
#       200
#       11017
#       24640
#       40732
#       56852
#       69907
#       81830
#       92425
#       104422
#       120237
#       131727
#       144962
#       162225
# 
# Disc length: 2347 seconds
# 
# Revision: 3
# Processed by: cddbd v1.4b42PL0 Copyright (c) Steve Scherf et al.
# Submitted via: Grip 2.95
# 
DISCID=a209290d
DTITLE=Butch Baldassari - Old Town
DYEAR=1900
DGENRE=
TTITLE0=Old Town
TTITLE1=Boscoe's Boogie
TTITLE2=Black Canyon
TTITLE3=Honky Tonk Swing
TTITLE4=Slocum Hollow
TTITLE5=Kentucky Mandolin
TTITLE6=Methodist Preacher
TTITLE7=The Jackrabbit Trail
TTITLE8=Rebecca
TTITLE9=Paintin' the Barn
TTITLE10=Maydelle's Reel
TTITLE11=No Title Yet Blues
TTITLE12=Waltz For Bill Monroe
EXTD=
EXTT0=
EXTT1=
EXTT2=
EXTT3=
EXTT4=
EXTT5=
EXTT6=
EXTT7=
EXTT8=
EXTT9=
EXTT10=
EXTT11=
EXTT12=
PLAYORDER=
